<svg width="216" height="48" viewBox="0 0 216 48" fill="none" xmlns="http://www.w3.org/2000/svg">
<path d="M28.409 35.133C28.033 35.4463 27.328 35.8693 26.294 36.402C25.2913 36.9347 24.0537 37.4047 22.581 37.812C21.1083 38.2193 19.479 38.4073 17.693 38.376C14.967 38.3133 12.523 37.8277 10.361 36.919C8.23033 35.979 6.413 34.71 4.909 33.112C3.43633 31.514 2.30833 29.681 1.525 27.613C0.741667 25.545 0.35 23.336 0.35 20.986C0.35 18.354 0.741667 15.9413 1.525 13.748C2.33967 11.5547 3.48333 9.659 4.956 8.061C6.46 6.463 8.246 5.22533 10.314 4.348C12.382 3.47067 14.6693 3.032 17.176 3.032C19.4947 3.032 21.547 3.34533 23.333 3.972C25.119 4.59866 26.576 5.27233 27.704 5.993L25.025 12.432C24.2417 11.8367 23.192 11.2257 21.876 10.599C20.5913 9.941 19.103 9.612 17.411 9.612C16.095 9.612 14.826 9.894 13.604 10.458C12.4133 10.9907 11.348 11.7583 10.408 12.761C9.49933 13.7637 8.77867 14.9387 8.246 16.286C7.71333 17.602 7.447 19.0433 7.447 20.61C7.447 22.2707 7.682 23.7903 8.152 25.169C8.65333 26.5477 9.35833 27.7383 10.267 28.741C11.1757 29.7123 12.2567 30.4643 13.51 30.997C14.7947 31.5297 16.236 31.796 17.834 31.796C19.6827 31.796 21.265 31.4983 22.581 30.903C23.897 30.3077 24.8997 29.681 25.589 29.023L28.409 35.133ZM33.9675 27.472C33.9675 25.3727 34.4532 23.4927 35.4245 21.832C36.4272 20.1713 37.8215 18.871 39.6075 17.931C41.3935 16.9597 43.4458 16.474 45.7645 16.474C48.1145 16.474 50.1512 16.9597 51.8745 17.931C53.5978 18.871 54.9138 20.1713 55.8225 21.832C56.7625 23.4927 57.2325 25.3727 57.2325 27.472C57.2325 29.5713 56.7625 31.467 55.8225 33.159C54.9138 34.8197 53.5978 36.1357 51.8745 37.107C50.1512 38.0783 48.0832 38.564 45.6705 38.564C43.4145 38.564 41.3935 38.1253 39.6075 37.248C37.8528 36.3707 36.4742 35.1017 35.4715 33.441C34.4688 31.7803 33.9675 29.7907 33.9675 27.472ZM40.5945 27.519C40.5945 28.5843 40.8138 29.5557 41.2525 30.433C41.6912 31.279 42.2865 31.9527 43.0385 32.454C43.7905 32.9553 44.6365 33.206 45.5765 33.206C46.6105 33.206 47.5035 32.9553 48.2555 32.454C49.0075 31.9527 49.5872 31.279 49.9945 30.433C50.4018 29.5557 50.6055 28.5843 50.6055 27.519C50.6055 26.4223 50.4018 25.451 49.9945 24.605C49.5872 23.759 49.0075 23.0853 48.2555 22.584C47.5035 22.0827 46.6105 21.832 45.5765 21.832C44.6365 21.832 43.7905 22.0827 43.0385 22.584C42.2865 23.0853 41.6912 23.759 41.2525 24.605C40.8138 25.451 40.5945 26.4223 40.5945 27.519ZM72.1921 38.564C70.2807 38.564 68.5731 38.1253 67.0691 37.248C65.5651 36.3393 64.3744 35.039 63.4971 33.347C62.6511 31.655 62.2281 29.6497 62.2281 27.331C62.2281 25.0123 62.6981 23.0383 63.6381 21.409C64.5781 19.7797 65.8627 18.542 67.4921 17.696C69.1214 16.85 70.9701 16.427 73.0381 16.427C74.3541 16.427 75.6074 16.6307 76.7981 17.038C78.0201 17.4453 79.0384 18.072 79.8531 18.918V20.986V0.916998H86.3861V38H79.8061V34.005L80.3231 35.415C79.2577 36.2923 78.0671 37.0443 76.7511 37.671C75.4351 38.2663 73.9154 38.564 72.1921 38.564ZM74.3541 33.018C75.2314 33.018 75.9991 32.9083 76.6571 32.689C77.3464 32.4383 77.9417 32.0937 78.4431 31.655C78.9757 31.185 79.4301 30.6053 79.8061 29.916V24.887C79.5554 24.1977 79.1637 23.618 78.6311 23.148C78.1297 22.6467 77.5031 22.2707 76.7511 22.02C76.0304 21.738 75.2314 21.597 74.3541 21.597C73.3827 21.597 72.4741 21.8477 71.6281 22.349C70.8134 22.819 70.1554 23.477 69.6541 24.323C69.1527 25.169 68.9021 26.1403 68.9021 27.237C68.9021 28.3337 69.1527 29.3207 69.6541 30.198C70.1554 31.0753 70.8134 31.7647 71.6281 32.266C72.4741 32.7673 73.3827 33.018 74.3541 33.018ZM104.67 38.564C102.164 38.564 100.033 38.094 98.2782 37.154C96.5548 36.214 95.2388 34.9137 94.3302 33.253C93.4215 31.5923 92.9672 29.681 92.9672 27.519C92.9672 25.451 93.4998 23.5867 94.5652 21.926C95.6305 20.2653 97.0562 18.9493 98.8422 17.978C100.628 16.9753 102.618 16.474 104.811 16.474C107.757 16.474 110.169 17.3357 112.049 19.059C113.961 20.751 115.198 23.2107 115.762 26.438L99.7822 31.514L98.3252 27.942L109.887 24.041L108.524 24.652C108.274 23.8373 107.819 23.1323 107.161 22.537C106.535 21.9103 105.579 21.597 104.294 21.597C103.323 21.597 102.461 21.832 101.709 22.302C100.989 22.7407 100.425 23.383 100.017 24.229C99.6412 25.0437 99.4532 26.015 99.4532 27.143C99.4532 28.4277 99.6882 29.5087 100.158 30.386C100.628 31.232 101.271 31.8743 102.085 32.313C102.9 32.7517 103.809 32.971 104.811 32.971C105.532 32.971 106.221 32.8457 106.879 32.595C107.569 32.3443 108.242 32.0153 108.9 31.608L111.814 36.496C110.718 37.1227 109.527 37.624 108.242 38C106.989 38.376 105.798 38.564 104.67 38.564ZM134.832 38.564C133.61 38.564 132.403 38.3447 131.213 37.906C130.053 37.436 129.082 36.778 128.299 35.932L128.487 34.005V47.87H121.954V16.991H127.594L128.534 20.986L128.017 19.576C129.082 18.6673 130.273 17.9153 131.589 17.32C132.905 16.7247 134.424 16.427 136.148 16.427C138.059 16.427 139.767 16.8813 141.271 17.79C142.775 18.6673 143.95 19.952 144.796 21.644C145.673 23.3047 146.112 25.31 146.112 27.66C146.112 29.9787 145.626 31.9527 144.655 33.582C143.683 35.2113 142.352 36.449 140.66 37.295C138.968 38.141 137.025 38.564 134.832 38.564ZM133.516 33.394C134.581 33.394 135.552 33.159 136.43 32.689C137.338 32.219 138.059 31.561 138.592 30.715C139.156 29.8377 139.438 28.8507 139.438 27.754C139.438 26.5947 139.187 25.592 138.686 24.746C138.216 23.8687 137.558 23.195 136.712 22.725C135.897 22.2237 134.988 21.973 133.986 21.973C133.108 21.973 132.325 22.0983 131.636 22.349C130.978 22.5683 130.382 22.913 129.85 23.383C129.348 23.8217 128.91 24.3857 128.534 25.075V30.104C128.784 30.762 129.145 31.3417 129.615 31.843C130.085 32.3443 130.649 32.736 131.307 33.018C131.996 33.2687 132.732 33.394 133.516 33.394ZM152.693 0.916998H159.273V38H152.693V0.916998ZM177.564 38.564C175.058 38.564 172.927 38.094 171.172 37.154C169.449 36.214 168.133 34.9137 167.224 33.253C166.316 31.5923 165.861 29.681 165.861 27.519C165.861 25.451 166.394 23.5867 167.459 21.926C168.525 20.2653 169.95 18.9493 171.736 17.978C173.522 16.9753 175.512 16.474 177.705 16.474C180.651 16.474 183.063 17.3357 184.943 19.059C186.855 20.751 188.092 23.2107 188.656 26.438L172.676 31.514L171.219 27.942L182.781 24.041L181.418 24.652C181.168 23.8373 180.713 23.1323 180.055 22.537C179.429 21.9103 178.473 21.597 177.188 21.597C176.217 21.597 175.355 21.832 174.603 22.302C173.883 22.7407 173.319 23.383 172.911 24.229C172.535 25.0437 172.347 26.015 172.347 27.143C172.347 28.4277 172.582 29.5087 173.052 30.386C173.522 31.232 174.165 31.8743 174.979 32.313C175.794 32.7517 176.703 32.971 177.705 32.971C178.426 32.971 179.115 32.8457 179.773 32.595C180.463 32.3443 181.136 32.0153 181.794 31.608L184.708 36.496C183.612 37.1227 182.421 37.624 181.136 38C179.883 38.376 178.692 38.564 177.564 38.564ZM203.465 23.994L207.366 17.461H213.899L205.768 28.741L203.465 23.994ZM215.027 38H207.084L191.245 17.461H199.329L215.027 38ZM202.619 31.42L198.013 38H191.48L199.611 27.002L202.619 31.42Z" fill="#F2F2F2"/>
</svg>
