<svg width="1920" height="3005" viewBox="0 0 1920 3005" fill="none" xmlns="http://www.w3.org/2000/svg">
<g filter="url(#filter0_f)">
<ellipse cx="1919.5" cy="1229" rx="390.5" ry="897" fill="#FDD273"/>
</g>
<g filter="url(#filter1_f)">
<ellipse cx="303.5" cy="-113" rx="303.5" ry="282" fill="#3DB2A2"/>
</g>
<g filter="url(#filter2_f)">
<path d="M-215 1521C-117.8 1759.4 -174.5 1892.33 -215 1929C-233.333 1963.83 -223.7 2083.1 -38.5 2281.5C193 2529.5 -5.5 1824 512.5 2033.5C926.9 2201.1 1045.5 2033.67 1053 1929C865.5 1929 1075 1504.5 799.5 1427C524 1349.5 397 1466 215 1388.5C33 1311 -336.5 1223 -215 1521Z" fill="#C4C4C4"/>
</g>
<g filter="url(#filter3_f)">
<path d="M342 1973.5C141 2036.5 -48 1870 -94 1767V1508.5C-94 1594.67 -122.7 1747.5 -237.5 1669.5C-381 1572 -759.5 1927.5 -685 2283.5C-610.5 2639.5 560 2507 1013.5 2363.5C1467 2220 1874.5 2639 2287.5 2507C2700.5 2375 2287.5 1767 2104 1600.5C1920.5 1434 1369.5 2100 1197 1927.5C1024.5 1755 543 1910.5 342 1973.5Z" fill="#FF7F60"/>
</g>
<defs>
<filter id="filter0_f" x="923" y="-274" width="1993" height="3006" filterUnits="userSpaceOnUse" color-interpolation-filters="sRGB">
<feFlood flood-opacity="0" result="BackgroundImageFix"/>
<feBlend mode="normal" in="SourceGraphic" in2="BackgroundImageFix" result="shape"/>
<feGaussianBlur stdDeviation="303" result="effect1_foregroundBlur"/>
</filter>
<filter id="filter1_f" x="-345" y="-740" width="1297" height="1254" filterUnits="userSpaceOnUse" color-interpolation-filters="sRGB">
<feFlood flood-opacity="0" result="BackgroundImageFix"/>
<feBlend mode="normal" in="SourceGraphic" in2="BackgroundImageFix" result="shape"/>
<feGaussianBlur stdDeviation="172.5" result="effect1_foregroundBlur"/>
</filter>
<filter id="filter2_f" x="-693.035" y="859.432" width="2200.03" height="1929.63" filterUnits="userSpaceOnUse" color-interpolation-filters="sRGB">
<feFlood flood-opacity="0" result="BackgroundImageFix"/>
<feBlend mode="normal" in="SourceGraphic" in2="BackgroundImageFix" result="shape"/>
<feGaussianBlur stdDeviation="227" result="effect1_foregroundBlur"/>
</filter>
<filter id="filter3_f" x="-1165.61" y="1037.5" width="4101.52" height="1966.6" filterUnits="userSpaceOnUse" color-interpolation-filters="sRGB">
<feFlood flood-opacity="0" result="BackgroundImageFix"/>
<feBlend mode="normal" in="SourceGraphic" in2="BackgroundImageFix" result="shape"/>
<feGaussianBlur stdDeviation="235.5" result="effect1_foregroundBlur"/>
</filter>
</defs>
</svg>
