<svg width="169" height="161" viewBox="0 0 169 161" fill="none" xmlns="http://www.w3.org/2000/svg">
<g opacity="0.8" clip-path="url(#clip0)">
<path d="M59.5335 105.793L33.8083 90.8881C32.3264 90.0295 29.9012 90.0295 28.4193 90.8881L2.69452 105.793C1.21247 106.651 0 108.759 0 110.476V140.286C0.115298 142.286 1.13328 143.942 2.69438 144.97L28.4196 159.874C29.9013 160.733 32.3266 160.733 33.8085 159.874L59.5335 144.97C61.2087 143.851 62.1622 142.168 62.228 140.286V110.476C62.1679 108.67 61.0897 106.847 59.5337 105.793H59.5335ZM10.3713 125.381C10.2495 105.055 37.378 96.0803 49.0769 114.967L40.1001 120.18C34.6809 111.185 21.2256 114.401 20.7426 125.381C20.8876 135.501 34.1125 140.202 40.1006 130.582L49.0775 135.795C38.7674 153.756 10.8912 147.294 10.3715 125.381H10.3713ZM51.8566 126.538H49.5517V128.851H47.2474V126.538H44.9426V124.225H47.2474V121.912H49.552V124.225H51.8567V126.538H51.8566ZM60.4994 126.538H58.1945V128.851H55.8899V126.538H53.5854V124.225H55.8902V121.912H58.1947V124.225H60.4995V126.538H60.4994Z" fill="#FF7F60"/>
</g>
<g opacity="0.44">
<path d="M117.814 117.247H133.083C133.083 117.247 141.662 117.385 141.662 108.957V95.0184C141.662 95.0184 142.964 86.5834 126.108 86.5834C109.972 86.5834 110.977 93.579 110.977 93.579L110.998 100.829H126.39V103.005H104.885C104.885 103.005 94.5588 101.834 94.5588 118.111C94.5588 134.389 103.572 133.81 103.572 133.81H108.949V126.257C108.949 126.257 108.656 117.247 117.814 117.247ZM117.617 96.9975C116.882 96.9975 116.178 96.7057 115.658 96.1864C115.139 95.667 114.847 94.9626 114.847 94.2281C114.847 93.4937 115.139 92.7893 115.658 92.2699C116.178 91.7506 116.882 91.4588 117.617 91.4588C118.351 91.4588 119.055 91.7506 119.575 92.2699C120.094 92.7893 120.386 93.4937 120.386 94.2281C120.386 94.9626 120.094 95.667 119.575 96.1864C119.055 96.7057 118.351 96.9975 117.617 96.9975Z" fill="#FF7F60"/>
<path d="M149.095 102.571H143.719V110.124C143.719 110.124 144.012 119.134 134.854 119.134H119.585C119.585 119.134 111.006 118.993 111.006 127.425V141.363C111.006 141.363 109.704 149.798 126.56 149.798C142.692 149.798 141.687 142.803 141.687 142.803L141.666 135.556H126.274V133.38H147.783C147.783 133.38 158.109 134.551 158.109 118.274C158.109 101.996 149.095 102.571 149.095 102.571ZM135.051 139.388C135.786 139.388 136.49 139.679 137.009 140.199C137.529 140.718 137.821 141.422 137.821 142.157C137.821 142.891 137.529 143.596 137.009 144.115C136.49 144.634 135.786 144.926 135.051 144.926C134.317 144.926 133.612 144.634 133.093 144.115C132.574 143.596 132.282 142.891 132.282 142.157C132.282 141.422 132.574 140.718 133.093 140.199C133.612 139.679 134.317 139.388 135.051 139.388Z" fill="#FF7F60"/>
</g>
<g clip-path="url(#clip1)">
<path d="M70.1063 58.9246C70.1063 58.9246 67.1916 60.6225 72.1756 61.1916C78.2145 61.8869 81.303 61.7893 87.9516 60.5225C87.9516 60.5225 89.697 61.6274 92.1426 62.5823C77.2239 68.9712 58.3833 62.1989 70.1039 58.9246H70.1063ZM68.2798 50.5902C68.2798 50.5902 65.0056 53.0072 69.992 53.5144C76.4571 54.1835 81.5388 54.2478 90.3566 52.55C90.3566 52.55 91.5735 53.7787 93.4975 54.4574C75.4642 59.7271 55.371 54.8669 68.2822 50.5902H68.2798ZM83.6462 36.4406C87.3158 40.6698 82.677 44.4774 82.677 44.4774C82.677 44.4774 92.0045 39.6506 87.7253 33.626C83.7224 27.9943 80.6458 25.2058 97.2623 15.5664C97.2623 15.5664 71.1802 22.0792 83.6438 36.443L83.6462 36.4406ZM103.368 65.1017C103.368 65.1017 105.528 66.8733 100.999 68.2521C92.3902 70.8548 65.1675 71.6359 57.6022 68.3497C54.8876 67.171 59.9835 65.5231 61.5837 65.1874C63.2577 64.8159 64.2126 64.8921 64.2126 64.8921C61.186 62.7585 44.6671 69.0712 55.8186 70.881C86.2418 75.8174 111.267 68.6617 103.368 65.1017ZM71.5065 41.9461C71.5065 41.9461 57.6546 45.2323 66.5939 46.4229C70.3777 46.9301 77.9073 46.8206 84.9273 46.2253C90.6543 45.7395 96.4122 44.7108 96.4122 44.7108C96.4122 44.7108 94.3905 45.5776 92.926 46.5849C78.8598 50.2806 51.6895 48.5566 59.5144 44.7751C66.1248 41.5866 71.5065 41.9461 71.5065 41.9461ZM96.3479 55.8361C110.636 48.3946 104.025 41.2627 99.4245 42.2319C98.2934 42.4534 97.7862 42.6677 97.7862 42.6677C97.7862 42.6677 98.1958 42.0081 99.003 41.7247C108.13 38.5123 115.15 51.1855 96.0622 56.21C96.0622 56.1981 96.2884 56.0123 96.3479 55.8385V55.8361ZM87.7277 0C87.7277 0 95.6431 7.91297 80.2124 20.0908C67.8488 29.8636 77.3954 35.4334 80.2124 41.7961C72.9948 35.2833 67.6988 29.5564 71.2469 24.2223C76.4667 16.3713 90.9162 12.5755 87.7277 0ZM72.9067 75.965C86.6252 76.8318 107.695 75.4697 108.207 68.9831C108.207 68.9831 107.237 71.4382 96.8551 73.3956C85.1488 75.6031 70.6992 75.3411 62.129 73.929C62.129 73.929 63.8912 75.3792 72.9043 75.965H72.9067Z" fill="#FF7F60"/>
</g>
<defs>
<clipPath id="clip0">
<rect width="62.2306" height="70.274" fill="white" transform="translate(0 90.2441)"/>
</clipPath>
<clipPath id="clip1">
<rect width="76.2008" height="76.2008" fill="white" transform="translate(42)"/>
</clipPath>
</defs>
</svg>
