<svg width="133" height="124" viewBox="0 0 133 124" fill="none" xmlns="http://www.w3.org/2000/svg">
<path fill-rule="evenodd" clip-rule="evenodd" d="M54.1667 7H52.3334V54.25H100V50.75H56V10.5H109.167V17.5H112.833V7L54.1667 7ZM111 29.75C111.722 29.75 112.438 29.6142 113.105 29.3504C113.772 29.0865 114.378 28.6998 114.889 28.2123C115.4 27.7248 115.805 27.146 116.081 26.5091C116.358 25.8721 116.5 25.1894 116.5 24.5C116.5 23.8106 116.358 23.1279 116.081 22.4909C115.805 21.854 115.4 21.2752 114.889 20.7877C114.378 20.3002 113.772 19.9135 113.105 19.6496C112.438 19.3858 111.722 19.25 111 19.25C109.541 19.25 108.142 19.8031 107.111 20.7877C106.079 21.7723 105.5 23.1076 105.5 24.5C105.5 25.8924 106.079 27.2277 107.111 28.2123C108.142 29.1969 109.541 29.75 111 29.75ZM107.174 33.2657C107.108 33.2657 107.04 33.2657 106.974 33.2692H103.667C103.254 33.2693 102.847 33.3579 102.476 33.5285C102.104 33.699 101.777 33.9471 101.52 34.2545L95.0115 42.0192H85.3334C84.604 42.0192 83.9046 42.2958 83.3888 42.7881C82.8731 43.2804 82.5834 43.9481 82.5834 44.6442C82.5834 45.3404 82.8731 46.0081 83.3888 46.5004C83.9046 46.9927 84.604 47.2692 85.3334 47.2692H96.3334C96.7457 47.2692 97.1527 47.1806 97.5243 47.01C97.896 46.8395 98.2226 46.5913 98.4802 46.284L101.986 42.1015V73.3127C101.988 74.0706 102.305 74.7966 102.867 75.3323C103.428 75.868 104.189 76.1699 104.983 76.1722C105.777 76.1695 106.537 75.8673 107.098 75.3317C107.659 74.796 107.976 74.0703 107.979 73.3127V59.01H113.974V73.3127C113.977 74.0703 114.293 74.796 114.854 75.3317C115.415 75.8673 116.176 76.1695 116.969 76.1722C117.763 76.1699 118.524 75.868 119.086 75.3323C119.647 74.7966 119.964 74.0706 119.967 73.3127V52.052C121.615 52.052 126.704 49.0577 126.704 41.6832C126.704 36.1252 121.615 33.2657 119.967 33.2657H107.174Z" fill="#FF7E60"/>
<g clip-path="url(#clip0)">
<path d="M28.9181 62.4983H45.5831L57.1889 75.6984V106.977C57.1889 107.989 56.8004 108.958 56.1089 109.673C55.4173 110.388 54.4794 110.79 53.5014 110.79H28.9181C27.9401 110.79 27.0022 110.388 26.3106 109.673C25.6191 108.958 25.2306 107.989 25.2306 106.977L25.2306 66.3108C25.2306 65.2997 25.6191 64.3299 26.3106 63.6149C27.0022 62.9 27.9401 62.4983 28.9181 62.4983V62.4983Z" stroke="#FF7F60" stroke-width="2" stroke-linejoin="round"/>
<path d="M30.1472 98.0817H52.2722" stroke="#FF7F60" stroke-width="2" stroke-linecap="round"/>
<path d="M30.1472 103.165H44.8972" stroke="#FF7F60" stroke-width="2" stroke-linecap="round"/>
<path d="M31.6837 87.915H40.9024M30.1472 91.7275L36.293 76.4775L42.4389 91.7275H30.1472Z" stroke="#FF7F60" stroke-width="2" stroke-linecap="round" stroke-linejoin="round"/>
<path d="M48.5847 84.1024V91.7274" stroke="#FF7F60" stroke-width="2" stroke-linecap="round"/>
<path d="M44.8972 87.9149H52.2722" stroke="#FF7F60" stroke-width="2" stroke-linecap="round"/>
</g>
<path d="M89.6575 99.0833H76.7084L87.2488 106.617L83.2513 119.583L93.7917 111.571L104.349 119.583L100.335 106.617L110.875 99.0833H97.9259L93.7917 85.4166L89.6575 99.0833ZM111.49 119.583L108.313 109.316L115.453 104.208H109.577L104.315 107.967L106.809 116.03L111.49 119.583ZM104.042 95.6666L100.933 85.4166L99.1559 91.3104L100.471 95.6666H104.042Z" fill="#FF7F60"/>
<defs>
<clipPath id="clip0">
<rect width="59" height="61" fill="white" transform="translate(0 63)"/>
</clipPath>
</defs>
</svg>
