<svg width="120" height="111" viewBox="0 0 120 111" fill="none" xmlns="http://www.w3.org/2000/svg">
<path d="M0 5.875C0 4.31685 0.618972 2.82252 1.72075 1.72075C2.82252 0.618972 4.31685 0 5.875 0L41.125 0C42.6831 0 44.1775 0.618972 45.2793 1.72075C46.381 2.82252 47 4.31685 47 5.875V29.375C47 30.9331 46.381 32.4275 45.2793 33.5293C44.1775 34.631 42.6831 35.25 41.125 35.25H12.9661C12.1871 35.2502 11.4401 35.5598 10.8893 36.1107L2.50863 44.4914C2.30338 44.6971 2.04171 44.8374 1.75673 44.8944C1.47175 44.9514 1.17627 44.9225 0.907686 44.8115C0.639103 44.7005 0.409493 44.5123 0.247917 44.2707C0.0863407 44.0291 6.17312e-05 43.7451 0 43.4544L0 5.875ZM10.2812 8.8125C9.89171 8.8125 9.51813 8.96724 9.24269 9.24269C8.96724 9.51813 8.8125 9.89171 8.8125 10.2812C8.8125 10.6708 8.96724 11.0444 9.24269 11.3198C9.51813 11.5953 9.89171 11.75 10.2812 11.75H36.7188C37.1083 11.75 37.4819 11.5953 37.7573 11.3198C38.0328 11.0444 38.1875 10.6708 38.1875 10.2812C38.1875 9.89171 38.0328 9.51813 37.7573 9.24269C37.4819 8.96724 37.1083 8.8125 36.7188 8.8125H10.2812ZM10.2812 16.1562C9.89171 16.1562 9.51813 16.311 9.24269 16.5864C8.96724 16.8619 8.8125 17.2355 8.8125 17.625C8.8125 18.0145 8.96724 18.3881 9.24269 18.6636C9.51813 18.939 9.89171 19.0938 10.2812 19.0938H36.7188C37.1083 19.0938 37.4819 18.939 37.7573 18.6636C38.0328 18.3881 38.1875 18.0145 38.1875 17.625C38.1875 17.2355 38.0328 16.8619 37.7573 16.5864C37.4819 16.311 37.1083 16.1562 36.7188 16.1562H10.2812ZM10.2812 23.5C9.89171 23.5 9.51813 23.6547 9.24269 23.9302C8.96724 24.2056 8.8125 24.5792 8.8125 24.9688C8.8125 25.3583 8.96724 25.7319 9.24269 26.0073C9.51813 26.2828 9.89171 26.4375 10.2812 26.4375H24.9688C25.3583 26.4375 25.7319 26.2828 26.0073 26.0073C26.2828 25.7319 26.4375 25.3583 26.4375 24.9688C26.4375 24.5792 26.2828 24.2056 26.0073 23.9302C25.7319 23.6547 25.3583 23.5 24.9688 23.5H10.2812Z" fill="#FF7F60"/>
<path d="M80 25C78.6739 25 77.4021 25.5268 76.4645 26.4645C75.5268 27.4021 75 28.6739 75 30V50C75 51.3261 75.5268 52.5979 76.4645 53.5355C77.4021 54.4732 78.6739 55 80 55H110C111.326 55 112.598 54.4732 113.536 53.5355C114.473 52.5979 115 51.3261 115 50V30C115 28.6739 114.473 27.4021 113.536 26.4645C112.598 25.5268 111.326 25 110 25H80ZM95 50C94.6685 50 94.3505 49.8683 94.1161 49.6339C93.8817 49.3995 93.75 49.0815 93.75 48.75V34.2675L89.635 38.385C89.4003 38.6197 89.0819 38.7516 88.75 38.7516C88.4181 38.7516 88.0997 38.6197 87.865 38.385C87.6303 38.1503 87.4984 37.8319 87.4984 37.5C87.4984 37.1681 87.6303 36.8497 87.865 36.615L94.115 30.365C94.2311 30.2486 94.3691 30.1562 94.5209 30.0932C94.6728 30.0302 94.8356 29.9978 95 29.9978C95.1644 29.9978 95.3272 30.0302 95.4791 30.0932C95.6309 30.1562 95.7689 30.2486 95.885 30.365L102.135 36.615C102.37 36.8497 102.502 37.1681 102.502 37.5C102.502 37.8319 102.37 38.1503 102.135 38.385C101.9 38.6197 101.582 38.7516 101.25 38.7516C100.918 38.7516 100.6 38.6197 100.365 38.385L96.25 34.2675V48.75C96.25 49.0815 96.1183 49.3995 95.8839 49.6339C95.6495 49.8683 95.3315 50 95 50Z" fill="#FF7F60"/>
<path d="M59.4167 101.042H34.4167V75.5833H49V71.4166H34.4167C32.125 71.4166 30.25 73.2916 30.25 75.5833V100.583C30.25 102.875 32.125 104.75 34.4167 104.75H59.4167C61.7083 104.75 63.5833 102.875 63.5833 100.583V86H59.4167V101.042Z" fill="#FF7F60"/>
<path d="M63.5834 65.1666H59.4167V71.4166H53.1667C53.1875 71.4375 53.1667 75.5833 53.1667 75.5833H59.4167V81.8125C59.4375 81.8333 63.5834 81.8125 63.5834 81.8125V75.5833H69.8334V71.4166H63.5834V65.1666ZM38.5834 79.75H55.25V83.9166H38.5834V79.75ZM38.5834 86V90.1666H55.25V86H49H38.5834ZM38.5834 92.25H55.25V96.4166H38.5834V92.25Z" fill="#FF7F60"/>
</svg>
