<svg width="775" height="857" viewBox="0 0 775 857" fill="none" xmlns="http://www.w3.org/2000/svg">
<path opacity="0.3" d="M774.726 108.237L734.228 131.772V207.306L374.122 415.295L346.758 399.423L532.558 292.144V272.987L565.394 254.103V210.042L629.152 173.097C631.888 174.191 635.445 174.191 637.908 172.823C640.644 171.181 640.644 168.718 637.908 167.35C635.172 165.708 630.793 165.708 628.331 167.35C625.868 168.718 625.594 170.907 627.51 172.549L563.752 209.495V253.556L532.558 271.071V200.464L532.284 200.19L514.224 189.791L623.132 126.846V56.2393L700.571 11.631C703.307 12.7257 706.865 12.7257 709.327 11.3573C712.064 9.71531 712.064 7.25227 709.327 5.88392C706.591 4.2419 702.213 4.2419 699.75 5.88392C697.287 7.25227 697.014 9.44164 698.929 11.0837L621.49 55.692V126.299L512.582 189.243L335.539 86.8905V7.79962C336.907 7.79962 338.549 7.25227 339.644 6.70493C342.38 5.06291 342.38 2.59987 339.644 1.23152C336.907 -0.410506 332.529 -0.410506 330.066 1.23152C327.33 2.87354 327.33 5.33658 330.066 6.70493C331.161 7.25227 332.529 7.79962 334.171 7.79962V87.7115L334.445 87.9851L440.889 149.561H363.177L300.514 113.437C302.429 111.795 302.155 109.605 299.693 108.237C296.956 106.595 292.578 106.595 290.115 108.237C287.379 109.879 287.379 112.342 290.115 113.71C292.578 115.079 296.409 115.352 298.872 113.984L362.629 150.929H443.352L530.916 201.559V291.323L345.116 398.602L320.215 384.097L451.561 308.29C454.297 309.385 457.855 309.385 460.318 308.016C463.054 306.374 463.054 303.911 460.318 302.543C457.581 300.901 453.203 300.901 450.74 302.543C448.278 303.911 448.004 306.101 449.919 307.743L318.574 383.55L294.494 369.592L451.835 278.734H494.522C494.796 279.555 495.343 280.102 496.438 280.649C499.174 282.291 503.552 282.291 506.015 280.649C508.751 279.007 508.751 276.544 506.015 275.176C503.279 273.534 498.9 273.534 496.438 275.176C495.343 275.723 494.796 276.544 494.522 277.092H451.287H451.014L292.852 368.498L283.274 363.024L283.001 363.298L275.886 367.403L238.124 345.783V315.406L269.319 297.343H318.026L371.933 266.418C374.669 267.513 378.226 267.513 380.689 266.145C383.426 264.503 383.426 262.04 380.689 260.671C377.953 259.029 373.575 259.029 371.112 260.671C368.649 262.04 368.376 264.229 370.291 265.871L317.753 296.249H271.782L363.177 243.43C365.913 244.525 369.744 244.525 372.206 243.156C374.943 241.514 374.943 239.051 372.206 237.683C369.47 236.041 365.092 236.041 362.629 237.683C360.166 239.051 359.893 241.241 361.808 242.609L247.702 308.564V294.059L315.564 254.924V226.189L371.112 194.169C373.848 195.264 377.406 195.264 379.868 193.896C382.605 192.254 382.605 189.791 379.868 188.422C377.132 186.78 372.754 186.78 370.291 188.422C367.828 189.791 367.555 191.98 369.47 193.622L314.195 225.642V253.282L246.333 292.417V308.837L236.756 314.311V346.33L274.518 367.95L249.891 382.181L172.451 337.299V286.396L224.99 256.019C227.726 257.114 231.557 257.114 234.02 255.745C236.756 254.103 236.756 251.64 234.02 250.272C231.283 248.63 226.905 248.63 224.443 250.272C221.98 251.64 221.706 253.83 223.622 255.198L172.451 284.754V243.704L212.95 220.442V142.993C214.318 142.993 215.96 142.446 217.054 141.898C219.791 140.256 219.791 137.793 217.054 136.425C214.318 134.783 209.94 134.783 207.477 136.425C204.741 138.067 204.741 140.53 207.477 141.898C208.572 142.446 209.94 142.993 211.582 142.993V219.347L172.725 241.788V105.5H171.083V338.394L248.523 383.276L220.612 399.423L119.366 340.857V201.559L70.6586 173.37V120.826L27.6975 95.9216C29.613 94.2796 29.3394 92.0902 26.8766 90.7219C24.1403 89.0798 19.7621 89.0798 17.2993 90.7219C14.563 92.3639 14.563 94.8269 17.2993 96.1953C19.7621 97.5636 23.593 97.8373 26.0557 96.4689L69.0167 121.373V173.918L117.45 202.106V341.404L218.696 399.97L198.173 411.738L61.3548 332.647V213.874L61.0812 213.6L-59.8663 143.814C-57.9508 142.172 -58.2245 139.983 -60.6872 138.614C-63.4236 136.972 -67.8018 136.972 -70.2645 138.614C-73.0009 140.256 -73.0009 142.719 -70.2645 144.088C-67.8018 145.456 -63.9709 145.73 -61.5081 144.361L59.9866 214.421V333.194L60.2603 333.468L196.532 412.285L163.148 431.442L-64.2445 300.08V241.514L-64.5181 241.241L-254.969 131.225C-253.054 129.583 -253.328 127.394 -255.79 126.025C-258.527 124.383 -262.905 124.383 -265.368 126.025C-268.104 127.667 -268.104 130.13 -265.368 131.499C-262.905 132.867 -259.074 133.141 -256.611 131.772L-65.8863 242.062V301.175L-65.6127 301.448L61.9021 375.066H-39.3435L-156.46 307.469C-154.545 305.827 -154.818 303.638 -157.281 302.269C-160.017 300.627 -164.396 300.627 -166.858 302.269C-169.595 303.911 -169.595 306.374 -166.858 307.743C-164.396 309.111 -160.565 309.385 -158.102 308.016L-39.8908 376.434H64.3649L161.232 432.263L122.376 454.704L39.7375 407.359H-94.0709L-246.213 319.511H-330.493L-364.972 299.533C-363.056 297.891 -363.33 295.701 -365.792 294.333C-368.529 292.691 -372.907 292.691 -375.37 294.333C-378.106 295.975 -378.106 298.438 -375.37 299.806C-372.907 301.175 -369.076 301.448 -366.613 300.08L-331.041 320.605H-246.76L-131.833 386.834H-230.889L-278.776 359.193C-276.86 357.551 -277.134 355.362 -279.597 353.993C-282.333 352.351 -286.711 352.351 -289.174 353.993C-291.91 355.635 -291.91 358.098 -289.174 359.467C-286.711 360.835 -282.88 361.109 -280.418 359.74L-231.437 387.928H-129.096L-94.6182 407.906H39.1903L62.4494 421.316H5.53296H5.25934L-23.199 437.736H-141.957L-175.341 418.306H-242.656C-242.929 417.485 -243.477 416.937 -244.571 416.39C-247.308 414.748 -251.686 414.748 -254.149 416.39C-256.885 418.032 -256.885 420.495 -254.149 421.864C-251.412 423.506 -247.034 423.506 -244.571 421.864C-243.477 421.316 -242.929 420.495 -242.656 419.948H-175.888L-142.505 439.378H-25.9353L-57.9509 457.988C-60.6872 456.893 -64.2445 456.893 -66.7072 458.262C-69.4436 459.904 -69.4436 462.367 -66.7072 463.735C-63.9708 465.377 -59.5927 465.377 -57.1299 463.735C-54.6672 462.367 -54.3936 460.177 -56.309 458.535L6.08026 422.411H65.1858L121.281 454.978L100.485 467.019L101.579 467.567L113.893 474.682H75.0367L24.1403 445.399C26.0557 443.757 25.782 441.568 23.3193 440.199C20.5829 438.557 16.2047 438.557 13.742 440.199C11.0056 441.841 11.0056 444.305 13.742 445.673C16.2047 447.041 20.0357 447.315 22.4984 445.947L74.4894 476.05H116.356L144.814 492.471L127.301 502.596H96.3804H96.1068L69.0167 518.196H48.7676L2.79657 491.65C4.98566 490.008 4.71204 487.818 2.24927 486.45C-0.487061 484.808 -4.8653 484.808 -7.328 486.45C-10.0644 488.092 -10.0644 490.555 -7.328 491.923C-4.8653 493.292 -1.30798 493.565 1.42834 492.471L48.494 519.564H69.5639H69.8376L96.9276 503.965H124.839L69.0167 536.258H38.9166L-24.0198 499.86H-213.65L-331.314 431.989C-329.399 430.347 -329.399 428.158 -331.861 426.79C-334.598 425.148 -338.976 425.148 -341.439 426.79C-344.175 428.432 -344.175 430.895 -341.439 432.263C-338.976 433.631 -335.419 433.905 -332.682 432.81L-213.924 501.502H-24.2935L38.643 537.9H69.5639H69.8376L146.73 493.565L166.979 505.333L79.9622 555.415H18.6675L-31.9553 526.132H-161.933C-162.207 525.311 -162.754 524.764 -163.848 524.216C-166.585 522.574 -170.963 522.574 -173.426 524.216C-176.162 525.858 -176.162 528.321 -173.426 529.69C-170.689 531.332 -166.311 531.332 -163.848 529.69C-162.754 529.142 -162.207 528.321 -161.933 527.774H-32.5026L15.3839 555.415H-167.679H-167.953L-342.26 656.126C-344.996 655.031 -348.553 655.031 -351.016 656.399C-353.752 658.041 -353.752 660.504 -351.016 661.873C-348.28 663.515 -343.901 663.515 -341.439 661.873C-338.976 660.504 -338.702 658.315 -340.618 656.673L-167.132 556.51H80.2358H80.5094L168.347 505.88L191.332 519.017L70.1112 590.445H-143.326H-143.599L-330.493 698.271H-548.308L-675.55 625.201C-673.634 623.559 -673.908 621.37 -676.37 620.001C-679.107 618.359 -683.485 618.359 -685.948 620.001C-688.684 621.643 -688.684 624.106 -685.948 625.475C-683.485 626.843 -679.654 627.117 -677.191 625.748L-549.129 699.639H-330.493H-330.22L-143.326 591.813H12.1002L-216.387 723.722V758.479L-307.508 811.023C-310.244 809.929 -313.801 809.929 -316.264 811.297C-319.001 812.939 -319.001 815.402 -316.264 816.77C-313.528 818.412 -309.15 818.412 -306.687 816.77C-304.224 815.402 -303.95 813.213 -305.866 811.571L-214.745 759.026V724.27L15.1102 591.539H68.4694L-46.4581 658.041V672.546L-101.459 704.292C-104.195 703.197 -107.753 703.197 -110.215 704.565C-112.952 706.207 -112.952 708.67 -110.215 710.039C-107.479 711.681 -103.101 711.681 -100.638 710.039C-98.1755 708.67 -97.9019 706.481 -99.8173 704.839L-69.9908 687.598V727.554L-242.929 827.444C-245.666 826.349 -249.223 826.349 -251.686 827.717C-254.422 829.359 -254.422 831.822 -251.686 833.191C-248.949 834.833 -244.571 834.833 -242.109 833.191C-239.646 831.822 -239.372 829.633 -241.288 827.991L-68.3491 728.101V686.229L-44.8163 672.546V658.041L71.2057 590.992L70.9321 590.445L192.701 520.111L214.865 532.974L89.8131 605.223V723.996L-140.316 857H-137.306L53.1457 746.984V854.537L48.7676 857H51.7775L54.5139 855.358V746.163L90.9077 725.091V606.318L215.96 534.069L235.388 545.289L138.794 601.118V666.252L139.068 666.525L248.796 729.743V751.91L186.681 787.761C183.944 786.667 180.387 786.667 177.924 788.035C175.188 789.677 175.188 792.14 177.924 793.508C180.661 795.15 185.039 795.15 187.501 793.508C189.964 792.14 190.238 789.951 188.322 788.309L250.438 752.458V728.648L250.164 728.375L140.436 665.157V601.665L213.223 559.52V586.613L179.84 606.044C177.103 604.949 173.546 604.949 171.083 606.318C168.347 607.96 168.347 610.423 171.083 611.791C173.82 613.433 178.198 613.433 180.661 611.791C183.123 610.423 183.397 608.233 181.482 606.591L214.865 587.161V558.152L237.03 545.289L263.025 560.341V607.686L213.771 636.148V668.715L214.044 668.988L317.479 728.648C315.564 730.29 315.837 732.48 318.3 733.848C321.036 735.49 325.415 735.49 327.877 733.848C330.614 732.206 330.614 729.743 327.877 728.375C325.415 727.006 321.584 726.733 319.121 728.101L215.139 668.167V637.242L262.752 609.602V642.168L326.509 678.84C324.594 680.482 324.867 682.672 327.33 684.04C330.066 685.682 334.445 685.682 336.907 684.04C339.644 682.398 339.644 679.935 336.907 678.567C334.445 677.198 330.614 676.925 328.151 678.293L264.393 641.621V561.709L282.727 572.382L283.001 572.109L312.827 554.867L340.191 570.74V609.054L412.705 650.926V687.05C411.337 687.05 409.695 687.598 408.6 688.145C405.864 689.787 405.864 692.25 408.6 693.619C411.337 695.261 415.715 695.261 418.177 693.619C420.914 691.977 420.914 689.514 418.177 688.145C417.083 687.598 415.715 687.05 414.073 687.05V650.105L341.559 608.233V571.561L459.223 639.432V711.407L395.466 748.353H336.907H336.634L236.209 806.371C233.473 805.276 229.915 805.276 227.453 806.645C224.716 808.287 224.716 810.75 227.453 812.118C230.189 813.76 234.567 813.76 237.03 812.118C239.493 810.75 239.766 808.56 237.851 806.918L337.455 749.447H393.003L208.572 855.905C205.835 854.811 202.278 854.811 199.815 856.179H211.034L461.138 711.681V638.063L460.865 637.79L314.743 553.499L344.022 536.532L593.305 680.482V766.415L678.406 815.676C676.491 817.318 676.764 819.507 679.227 820.875C681.964 822.518 686.342 822.518 688.804 820.875C691.541 819.233 691.541 816.77 688.804 815.402C686.342 814.034 682.511 813.76 680.048 815.128L594.947 765.868V679.935L594.673 679.661L345.664 535.984L373.575 519.838L620.122 662.146H767.885L774.726 666.252V664.609L768.159 660.778H620.943L412.705 540.637H454.571L525.717 581.687H580.444H580.718L656.515 537.9C659.252 538.995 662.809 538.995 665.272 537.626C668.008 535.984 668.008 533.521 665.272 532.153C662.535 530.511 658.157 530.511 655.694 532.153C653.232 533.521 652.958 535.711 654.874 537.353L579.897 580.593H525.99L454.845 539.542H409.968L375.216 519.564L449.919 476.324L471.263 488.639V520.932L525.17 552.131C523.254 553.773 523.528 555.962 525.99 557.331C528.727 558.973 533.105 558.973 535.568 557.331C538.304 555.689 538.304 553.225 535.568 551.857C533.105 550.489 529.274 550.215 526.811 551.583L472.905 520.385V490.008L530.369 523.122H557.732H558.006L590.569 504.238C593.305 505.333 596.862 505.333 599.325 503.965C602.062 502.323 602.062 499.86 599.325 498.491C596.589 496.849 592.211 496.849 589.748 498.491C587.285 499.86 587.011 502.049 588.927 503.691L557.459 522.027H530.916L451.835 476.324L466.338 468.114L465.243 467.567L420.367 441.841L441.984 429.526H474.547L497.806 442.936C495.89 444.578 496.164 446.494 498.627 447.862C501.363 449.504 505.741 449.504 508.204 447.862C510.94 446.22 510.94 443.757 508.204 442.389C505.741 441.02 501.91 440.747 499.174 442.115L474.82 428.158H444.447L499.174 396.412L628.331 470.851H721.094H721.367L773.632 440.747C773.906 441.02 774.453 441.02 774.726 441.02V433.905C773.906 434.179 773.358 434.452 772.811 434.726C770.348 436.094 770.075 438.284 771.99 439.926L720.546 469.482H628.604L529 412.011H571.688L613.281 436.094C611.365 437.736 611.639 439.926 614.102 441.294C616.838 442.936 621.216 442.936 623.679 441.294C626.415 439.652 626.415 437.189 623.679 435.821C621.216 434.452 617.385 434.179 614.922 435.547L572.235 410.917H526.538L500.816 396.138L566.215 358.372H774.453V356.73H568.678L594.673 341.678H749.552H749.826L774.453 327.447V325.805L749.278 340.31H594.4H594.126L418.451 441.841L399.023 430.621L583.728 323.889H718.631H718.904L774.453 291.87V290.228L718.631 321.426H583.728H583.454L397.928 428.705L375.764 415.843L735.87 207.853V132.32L775 109.879V108.237H774.726ZM463.328 468.114L283.548 572.109L103.769 468.388L283.548 364.666L463.328 468.114Z" fill="#FF7F60"/>
</svg>
