<svg width="56" height="56" viewBox="0 0 56 56" fill="none" xmlns="http://www.w3.org/2000/svg">
<path d="M24.2157 1.56368L1.56406 24.2153C0.562967 25.217 0.000610352 26.5753 0.000610352 27.9915C0.000610352 29.4077 0.562967 30.7659 1.56406 31.7677L24.2157 54.4393C24.7114 54.9354 25.3001 55.329 25.9481 55.5975C26.596 55.8661 27.2905 56.0043 27.9919 56.0043C28.6932 56.0043 29.3877 55.8661 30.0357 55.5975C30.6836 55.329 31.2723 54.9354 31.768 54.4393L54.4397 31.7749C54.9369 31.279 55.3314 30.6899 55.6006 30.0413C55.8697 29.3927 56.0083 28.6974 56.0083 27.9951C56.0083 27.2929 55.8697 26.5975 55.6006 25.9489C55.3314 25.3003 54.9369 24.7112 54.4397 24.2153L31.7753 1.56368C31.2792 1.06689 30.69 0.672778 30.0414 0.403883C29.3928 0.134987 28.6976 -0.00341797 27.9955 -0.00341797C27.2934 -0.00341797 26.5982 0.134987 25.9496 0.403883C25.301 0.672778 24.7118 1.06689 24.2157 1.56368ZM31.768 44.3634L27.9919 48.1414L10.3782 30.5168L24.2157 16.6702L27.9919 20.4464L17.9287 30.5168L31.768 44.3634ZM27.9919 35.5529L38.0696 25.4898L24.2157 11.6341L27.9919 7.85792L45.6238 25.4898L31.7753 39.3273L27.9919 35.5529Z" fill="url(#paint0_linear_123_30)"/>
<defs>
<linearGradient id="paint0_linear_123_30" x1="5.97874e-05" y1="27.9988" x2="56.0001" y2="27.9988" gradientUnits="userSpaceOnUse">
<stop stop-color="#3EB2A2"/>
<stop offset="1" stop-color="#FDD272"/>
</linearGradient>
</defs>
</svg>
