<svg width="663" height="812" viewBox="0 0 663 812" fill="none" xmlns="http://www.w3.org/2000/svg">
<g style="mix-blend-mode:overlay" opacity="0.43" clip-path="url(#clip0)">
<path d="M202.127 22.6724L-126.321 351.121C-140.837 365.646 -148.991 385.341 -148.991 405.876C-148.991 426.411 -140.837 446.105 -126.321 460.63L202.127 789.369C209.316 796.563 217.852 802.27 227.247 806.163C236.642 810.057 246.712 812.061 256.882 812.061C267.052 812.061 277.122 810.057 286.517 806.163C295.912 802.27 304.448 796.563 311.637 789.369L640.376 460.736C647.585 453.545 653.305 445.003 657.208 435.598C661.111 426.193 663.12 416.111 663.12 405.928C663.12 395.746 661.111 385.663 657.208 376.259C653.305 366.854 647.585 358.311 640.376 351.121L311.742 22.6724C304.548 15.469 296.005 9.75441 286.6 5.85543C277.196 1.95645 267.115 -0.0504303 256.935 -0.0504303C246.754 -0.0504303 236.674 1.95645 227.269 5.85543C217.865 9.75441 209.321 15.469 202.127 22.6724ZM311.637 643.269L256.882 698.05L1.48365 442.493L202.127 241.717L256.882 296.472L110.966 442.493L311.637 643.269ZM256.882 515.517L403.009 369.601L202.127 168.694L256.882 113.939L512.544 369.601L311.742 570.245L256.882 515.517Z" fill="url(#paint0_linear)"/>
</g>
<defs>
<linearGradient id="paint0_linear" x1="-148.999" y1="405.981" x2="663.001" y2="405.981" gradientUnits="userSpaceOnUse">
<stop stop-color="#3EB2A2"/>
<stop offset="1" stop-color="#FDD272"/>
</linearGradient>
<clipPath id="clip0">
<rect width="812" height="812" fill="white" transform="translate(-149)"/>
</clipPath>
</defs>
</svg>
