<svg width="32" height="32" viewBox="0 0 32 32" fill="none" xmlns="http://www.w3.org/2000/svg">
<path fill-rule="evenodd" clip-rule="evenodd" d="M0.25 0.25V24.75H19.8386V23H2V2H25.625V3.855H27.375V0.25H0.25ZM27.375 9C27.375 9.46413 27.1906 9.90925 26.8624 10.2374C26.5343 10.5656 26.0891 10.75 25.625 10.75C25.1609 10.75 24.7157 10.5656 24.3876 10.2374C24.0594 9.90925 23.875 9.46413 23.875 9C23.875 8.53587 24.0594 8.09075 24.3876 7.76256C24.7157 7.43437 25.1609 7.25 25.625 7.25C26.0891 7.25 26.5343 7.43437 26.8624 7.76256C27.1906 8.09075 27.375 8.53587 27.375 9ZM29.125 9C29.125 9.92826 28.7563 10.8185 28.0999 11.4749C27.4435 12.1313 26.5533 12.5 25.625 12.5C24.6967 12.5 23.8065 12.1313 23.1501 11.4749C22.4937 10.8185 22.125 9.92826 22.125 9C22.125 8.07174 22.4937 7.1815 23.1501 6.52513C23.8065 5.86875 24.6967 5.5 25.625 5.5C26.5533 5.5 27.4435 5.86875 28.0999 6.52513C28.7563 7.1815 29.125 8.07174 29.125 9Z" fill="#CDCDCD"/>
<path fill-rule="evenodd" clip-rule="evenodd" d="M21.3314 14.1012C21.8194 13.6354 22.468 13.3753 23.1426 13.375H26.7144C27.9954 13.375 29.188 13.8107 30.1068 14.6787C30.9905 15.5135 31.4508 16.5836 31.6389 17.5977C31.9346 19.192 31.6284 20.9341 30.875 22.4785V29.5625C30.875 30.1114 30.6687 30.6403 30.2969 31.0442C29.9251 31.448 29.415 31.6973 28.8679 31.7426C28.3209 31.7879 27.7768 31.6258 27.3436 31.2886C26.9105 30.9514 26.62 30.4636 26.5298 29.9221L26.0625 27.1186L25.5953 29.9221C25.505 30.4636 25.2145 30.9514 24.7814 31.2886C24.3483 31.6258 23.8042 31.7879 23.2571 31.7426C22.71 31.6973 22.2 31.448 21.8282 31.0442C21.4564 30.6403 21.25 30.1114 21.25 29.5625V24.316V21.3314C20.851 21.5618 20.3983 21.6831 19.9375 21.6831H15.4733C14.7771 21.6831 14.1094 21.4066 13.6171 20.9143C13.1248 20.422 12.8483 19.7543 12.8483 19.0581C12.8483 18.3619 13.1248 17.6943 13.6171 17.202C14.1094 16.7097 14.7771 16.4331 15.4733 16.4331H18.8858L21.3314 14.1004V14.1012ZM23 24.2906V29.5625C23.0003 29.6721 23.0417 29.7776 23.1161 29.8581C23.1904 29.9386 23.2923 29.9883 23.4015 29.9973C23.5107 30.0063 23.6194 29.974 23.7059 29.9068C23.7925 29.8396 23.8506 29.7423 23.8689 29.6342L24.7815 24.1602C24.8155 23.9559 24.9208 23.7703 25.0788 23.6364C25.2368 23.5024 25.4371 23.4288 25.6443 23.4287H26.4808C26.6879 23.4288 26.8883 23.5024 27.0462 23.6364C27.2042 23.7703 27.3095 23.9559 27.3435 24.1602L28.2561 29.6342C28.2744 29.7423 28.3326 29.8396 28.4191 29.9068C28.5057 29.974 28.6143 30.0063 28.7235 29.9973C28.8327 29.9883 28.9346 29.9386 29.009 29.8581C29.0833 29.7776 29.1247 29.6721 29.125 29.5625V22.2702C29.125 22.1302 29.1586 21.9921 29.223 21.8677C29.8985 20.564 30.1444 19.1351 29.9186 17.9171C29.7813 17.1769 29.4601 16.4751 28.9054 15.951C28.3393 15.4164 27.5885 15.125 26.7144 15.125H23.1435C22.9186 15.125 22.7016 15.2116 22.5389 15.3665L19.8404 17.9407C19.6778 18.0961 19.4616 18.1829 19.2366 18.1831H15.4733C15.2412 18.1831 15.0186 18.2753 14.8545 18.4394C14.6905 18.6035 14.5983 18.8261 14.5983 19.0581C14.5983 19.2902 14.6905 19.5127 14.8545 19.6768C15.0186 19.8409 15.2412 19.9331 15.4733 19.9331H19.9375C20.1624 19.9329 20.3786 19.8461 20.5413 19.6907L21.5213 18.7562C21.6452 18.6381 21.8012 18.5589 21.9698 18.5285C22.1383 18.4981 22.3121 18.5178 22.4696 18.5853C22.627 18.6527 22.7612 18.7649 22.8555 18.9079C22.9498 19.0509 23 19.2185 23 19.3897V24.2915V24.2906Z" fill="#CDCDCD"/>
</svg>
