<svg width="33" height="33" viewBox="0 0 33 33" fill="none" xmlns="http://www.w3.org/2000/svg">
<path d="M16.6602 22.9463C16.6602 23.1225 16.7963 23.2666 16.9604 23.2666H24.3677C24.5318 23.2666 24.668 23.1225 24.668 22.9463V21.0244C24.668 20.8482 24.5318 20.7041 24.3677 20.7041H16.9604C16.7963 20.7041 16.6602 20.8482 16.6602 21.0244V22.9463ZM8.85654 23.1905L16.544 16.7442C16.6962 16.6161 16.6962 16.3799 16.544 16.2518L8.85654 9.80947C8.81013 9.77001 8.75338 9.74469 8.69301 9.73652C8.63264 9.72836 8.57119 9.73769 8.51597 9.7634C8.46074 9.78912 8.41406 9.83014 8.38145 9.8816C8.34885 9.93306 8.3317 9.99279 8.33203 10.0537V12.5642C8.33203 12.6603 8.37207 12.7483 8.44814 12.8084L12.8444 16.5L8.44814 20.1916C8.41236 20.2216 8.38345 20.2589 8.36342 20.301C8.34338 20.3432 8.33267 20.3892 8.33203 20.4358V22.9463C8.33203 23.2186 8.64834 23.3667 8.85654 23.1905ZM31.2344 0.484375H1.76562C1.05693 0.484375 0.484375 1.05693 0.484375 1.76562V31.2344C0.484375 31.9431 1.05693 32.5156 1.76562 32.5156H31.2344C31.9431 32.5156 32.5156 31.9431 32.5156 31.2344V1.76562C32.5156 1.05693 31.9431 0.484375 31.2344 0.484375ZM29.6328 29.6328H3.36719V3.36719H29.6328V29.6328Z" fill="#CDCDCD"/>
</svg>
