<svg width="36" height="36" viewBox="0 0 36 36" fill="none" xmlns="http://www.w3.org/2000/svg">
<path d="M18 12V19.5H25.5V16.5H21V12H18Z" fill="#363636"/>
<path d="M31.938 12.7455C31.2614 11.1406 30.2791 9.68252 29.046 8.4525C27.1793 6.58585 24.8066 5.30716 22.221 4.7745C20.4264 4.40923 18.5766 4.40923 16.782 4.7745C14.194 5.30376 11.8192 6.5835 9.954 8.454C8.72383 9.68533 7.742 11.1418 7.062 12.744C6.35866 14.4069 5.99748 16.1945 6 18L6.0015 18.0375H3L7.5 24L12 18.0375H9.0015L9 18C8.99568 15.9081 9.62019 13.8631 10.7925 12.1305C11.5487 11.0125 12.5114 10.0493 13.629 9.2925C14.7659 8.52661 16.0412 7.9896 17.3835 7.7115C20.1113 7.15066 22.9502 7.69595 25.2761 9.22751C27.602 10.7591 29.2245 13.1515 29.787 15.879C30.0699 17.2768 30.0699 18.7172 29.787 20.115C29.5126 21.4585 28.9753 22.7344 28.206 23.8695C27.831 24.426 27.4005 24.9495 26.925 25.4235C25.9667 26.3806 24.8338 27.1449 23.5875 27.675C22.9527 27.9433 22.293 28.1483 21.618 28.287C20.2207 28.5697 18.7808 28.5697 17.3835 28.287C16.0414 28.0119 14.7667 27.4751 13.632 26.7075C13.0739 26.3304 12.5531 25.901 12.0765 25.425L9.9555 27.546C11.2082 28.8004 12.696 29.7953 14.3338 30.4738C15.9716 31.1523 17.7272 31.501 19.5 31.5C21.3046 31.4993 23.0909 31.1387 24.7545 30.4395C27.1659 29.4193 29.229 27.7204 30.693 25.5495C32.1997 23.3204 33.0033 20.6906 33 18C33.0038 16.1948 32.6425 14.4075 31.938 12.7455Z" fill="#363636"/>
</svg>
