<svg width="39" height="39" viewBox="0 0 39 39" fill="none" xmlns="http://www.w3.org/2000/svg">
<path fill-rule="evenodd" clip-rule="evenodd" d="M17.7917 14.375V21.4988C16.6514 21.9018 15.6903 22.6949 15.0782 23.738C14.4662 24.7812 14.2426 26.0071 14.4471 27.1991C14.6515 28.3911 15.2708 29.4725 16.1955 30.252C17.1201 31.0316 18.2906 31.4592 19.5 31.4592C20.7094 31.4592 21.8799 31.0316 22.8046 30.252C23.7292 29.4725 24.3485 28.3911 24.5529 27.1991C24.7574 26.0071 24.5338 24.7812 23.9218 23.738C23.3098 22.6949 22.3486 21.9018 21.2083 21.4988V14.375H17.7917ZM17.7917 26.3333C17.7917 25.8803 17.9717 25.4457 18.292 25.1254C18.6124 24.805 19.0469 24.625 19.5 24.625C19.9531 24.625 20.3876 24.805 20.708 25.1254C21.0284 25.4457 21.2083 25.8803 21.2083 26.3333C21.2083 26.7864 21.0284 27.2209 20.708 27.5413C20.3876 27.8617 19.9531 28.0417 19.5 28.0417C19.0469 28.0417 18.6124 27.8617 18.292 27.5413C17.9717 27.2209 17.7917 26.7864 17.7917 26.3333Z" fill="#363636"/>
<path d="M19.5 7.54169C22.6716 7.54169 25.7132 8.80158 27.9558 11.0442C30.1985 13.2868 31.4584 16.3285 31.4584 19.5V21.2084H28.0417V19.5C28.0417 17.2346 27.1418 15.062 25.5399 13.4602C23.938 11.8583 21.7654 10.9584 19.5 10.9584C17.2346 10.9584 15.062 11.8583 13.4602 13.4602C11.8583 15.062 10.9584 17.2346 10.9584 19.5V21.2084H7.54169V19.5C7.54169 16.3285 8.80158 13.2868 11.0442 11.0442C13.2868 8.80158 16.3285 7.54169 19.5 7.54169Z" fill="#363636"/>
<path fill-rule="evenodd" clip-rule="evenodd" d="M19.5 38.2917C29.8781 38.2917 38.2917 29.8781 38.2917 19.5C38.2917 9.12189 29.8781 0.708344 19.5 0.708344C9.12189 0.708344 0.708344 9.12189 0.708344 19.5C0.708344 29.8781 9.12189 38.2917 19.5 38.2917ZM19.5 34.875C21.5191 34.875 23.5184 34.4773 25.3838 33.7047C27.2491 32.932 28.9441 31.7995 30.3718 30.3718C31.7995 28.9441 32.932 27.2491 33.7047 25.3838C34.4773 23.5184 34.875 21.5191 34.875 19.5C34.875 17.4809 34.4773 15.4816 33.7047 13.6163C32.932 11.7509 31.7995 10.0559 30.3718 8.62824C28.9441 7.20054 27.2491 6.06803 25.3838 5.29536C23.5184 4.5227 21.5191 4.12501 19.5 4.12501C15.4223 4.12501 11.5116 5.74487 8.62824 8.62824C5.74487 11.5116 4.12501 15.4223 4.12501 19.5C4.12501 23.5777 5.74487 27.4884 8.62824 30.3718C11.5116 33.2551 15.4223 34.875 19.5 34.875Z" fill="#363636"/>
</svg>
