<svg width="37" height="39" viewBox="0 0 37 39" fill="none" xmlns="http://www.w3.org/2000/svg">
<path d="M35.8344 24.2745L33.0839 21.923C33.2141 21.1251 33.2813 20.3105 33.2813 19.4958C33.2813 18.6812 33.2141 17.8665 33.0839 17.0687L35.8344 14.7171C36.0418 14.5395 36.1903 14.303 36.2601 14.0389C36.3298 13.7749 36.3176 13.4959 36.2249 13.239L36.1871 13.1298C35.4299 11.0135 34.2961 9.05166 32.8403 7.33907L32.7648 7.25089C32.5882 7.04325 32.3528 6.89398 32.0897 6.82277C31.8266 6.75156 31.548 6.76173 31.2908 6.85196L27.8769 8.06554C26.6171 7.03253 25.2104 6.21788 23.6902 5.64679L23.031 2.07745C22.9812 1.80888 22.851 1.5618 22.6574 1.36904C22.4639 1.17627 22.2163 1.04695 21.9476 0.998254L21.8342 0.977258C19.6464 0.582532 17.3452 0.582532 15.1574 0.977258L15.0441 0.998254C14.7753 1.04695 14.5277 1.17627 14.3342 1.36904C14.1407 1.5618 14.0104 1.80888 13.9607 2.07745L13.2972 5.66359C11.7892 6.2348 10.3849 7.04901 9.13996 8.07394L5.7008 6.85196C5.44366 6.76102 5.16494 6.75047 4.90166 6.82173C4.63839 6.89298 4.40303 7.04267 4.22687 7.25089L4.15128 7.33907C2.69729 9.05288 1.56362 11.0144 0.804507 13.1298L0.766714 13.239C0.577749 13.7639 0.73312 14.3518 1.15724 14.7171L3.94132 17.0939C3.81115 17.8833 3.74816 18.6896 3.74816 19.4916C3.74816 20.2979 3.81115 21.1041 3.94132 21.8894L1.15724 24.2661C0.949782 24.4437 0.8013 24.6803 0.731541 24.9443C0.661782 25.2083 0.67405 25.4874 0.766714 25.7442L0.804507 25.8534C1.56457 27.9698 2.68996 29.9225 4.15128 31.6441L4.22687 31.7323C4.40347 31.94 4.63883 32.0892 4.90195 32.1605C5.16506 32.2317 5.44358 32.2215 5.7008 32.1313L9.13996 30.9093C10.3913 31.9381 11.7897 32.7527 13.2972 33.3196L13.9607 36.9058C14.0104 37.1743 14.1407 37.4214 14.3342 37.6142C14.5277 37.8069 14.7753 37.9363 15.0441 37.985L15.1574 38.006C17.3653 38.4028 19.6263 38.4028 21.8342 38.006L21.9476 37.985C22.2163 37.9363 22.4639 37.8069 22.6574 37.6142C22.851 37.4214 22.9812 37.1743 23.031 36.9058L23.6902 33.3364C25.2097 32.7668 26.6244 31.9495 27.8769 30.9177L31.2908 32.1313C31.548 32.2222 31.8267 32.2327 32.09 32.1615C32.3532 32.0902 32.5886 31.9406 32.7648 31.7323L32.8403 31.6441C34.3017 29.9183 35.4271 27.9698 36.1871 25.8534L36.2249 25.7442C36.4139 25.2277 36.2585 24.6399 35.8344 24.2745ZM30.1025 17.5642C30.2074 18.1983 30.262 18.8491 30.262 19.5C30.262 20.1509 30.2074 20.8018 30.1025 21.4358L29.8253 23.1197L32.9621 25.803C32.4866 26.8986 31.8863 27.9356 31.1733 28.8937L27.2764 27.5121L25.9578 28.5955C24.9542 29.4186 23.8372 30.0652 22.6278 30.5188L21.0279 31.1192L20.2763 35.1925C19.0903 35.3269 17.8929 35.3269 16.7069 35.1925L15.9553 31.1108L14.368 30.502C13.1712 30.0484 12.0584 29.4018 11.0632 28.5829L9.74464 27.4953L5.82257 28.8895C5.10871 27.9278 4.51242 26.8906 4.03371 25.7988L7.20412 23.0903L6.93117 21.4107C6.83039 20.785 6.7758 20.1383 6.7758 19.5C6.7758 18.8575 6.82619 18.215 6.93117 17.5894L7.20412 15.9097L4.03371 13.2012C4.50822 12.1052 5.10871 11.0722 5.82257 10.1106L9.74464 11.5047L11.0632 10.4171C12.0584 9.59825 13.1712 8.95157 14.368 8.49806L15.9595 7.89757L16.7111 3.81593C17.8911 3.68155 19.0963 3.68155 20.2805 3.81593L21.0321 7.88917L22.632 8.48966C23.8372 8.94317 24.9584 9.58985 25.962 10.4129L27.2806 11.4963L31.1775 10.1148C31.8913 11.0764 32.4876 12.1136 32.9663 13.2054L29.8295 15.8887L30.1025 17.5642ZM18.5 11.6895C14.4184 11.6895 11.1094 14.9984 11.1094 19.0801C11.1094 23.1617 14.4184 26.4707 18.5 26.4707C22.5817 26.4707 25.8906 23.1617 25.8906 19.0801C25.8906 14.9984 22.5817 11.6895 18.5 11.6895ZM21.8258 22.4059C21.3896 22.8433 20.8712 23.1902 20.3004 23.4266C19.7297 23.663 19.1178 23.7842 18.5 23.7832C17.2444 23.7832 16.0645 23.2919 15.1742 22.4059C14.7368 21.9697 14.3899 21.4513 14.1535 20.8805C13.9171 20.3097 13.7959 19.6979 13.7969 19.0801C13.7969 17.8245 14.2882 16.6445 15.1742 15.7543C16.0645 14.8641 17.2444 14.377 18.5 14.377C19.7556 14.377 20.9356 14.8641 21.8258 15.7543C22.2633 16.1905 22.6102 16.7089 22.8465 17.2797C23.0829 17.8504 23.2041 18.4623 23.2031 19.0801C23.2031 20.3357 22.7118 21.5156 21.8258 22.4059Z" fill="#363636"/>
</svg>
