<svg width="25" height="25" viewBox="0 0 25 25" fill="none" xmlns="http://www.w3.org/2000/svg">
<path d="M18.3468 16.1627C19.8598 14.0982 20.5374 11.5385 20.2442 8.99579C19.9509 6.45307 18.7084 4.11484 16.7652 2.44889C14.822 0.782938 12.3214 -0.0878709 9.76374 0.0106809C7.20607 0.109233 4.77991 1.16988 2.97067 2.98042C1.16142 4.79096 0.102517 7.21787 0.00579536 9.77561C-0.0909262 12.3334 0.781671 14.8333 2.44901 16.7753C4.11635 18.7173 6.45548 19.9582 8.99841 20.2496C11.5413 20.541 14.1005 19.8616 16.164 18.3471H16.1624C16.2093 18.4096 16.2593 18.469 16.3156 18.5268L22.3312 24.5424C22.6242 24.8356 23.0216 25.0004 23.4361 25.0006C23.8506 25.0007 24.2482 24.8362 24.5413 24.5432C24.8345 24.2502 24.9993 23.8528 24.9995 23.4383C24.9996 23.0238 24.8351 22.6262 24.5421 22.3331L18.5265 16.3174C18.4706 16.2609 18.4106 16.2087 18.3468 16.1612V16.1627ZM18.7499 10.1565C18.7499 11.285 18.5277 12.4025 18.0958 13.4452C17.6639 14.4878 17.0309 15.4352 16.2329 16.2332C15.4349 17.0312 14.4875 17.6642 13.4449 18.0961C12.4022 18.528 11.2847 18.7502 10.1562 18.7502C9.02764 18.7502 7.91014 18.528 6.8675 18.0961C5.82486 17.6642 4.87749 17.0312 4.07949 16.2332C3.28149 15.4352 2.64847 14.4878 2.2166 13.4452C1.78472 12.4025 1.56244 11.285 1.56244 10.1565C1.56244 7.87729 2.46785 5.69144 4.07949 4.0798C5.69113 2.46816 7.87698 1.56275 10.1562 1.56275C12.4354 1.56275 14.6212 2.46816 16.2329 4.0798C17.8445 5.69144 18.7499 7.87729 18.7499 10.1565Z" fill="#272623"/>
</svg>
